#Comment line ignore any data following # character 
#Hierarchical Translation and Rotation (.htr) file 
[Header]	
#Header keywords are followed by a single value 
FileType HTR		#Single word string
DataType HTRS		#Translation followed by rotation and scale data
FileVersion 1		#integer
NumSegments 84		#integer
NumFrames 2		#integer
DataFrameRate 30		#integer, data frame rate in this file
EulerRotationOrder ZYX
CalibrationUnits mm
RotationUnits Degrees
GlobalAxisofGravity Y
BoneLengthAxis Y
ScaleFactor 1.00
[SegmentNames&Hierarchy]
#CHILD	PARENT
MASTER GLOBAL
root MASTER
chest root
L_mid_tent01 root
R_mid_tent01 root
spine01 root
Bip01_Neck chest
L_humerus chest
R_humerus chest
weapon_bone chest
Bip01_Head Bip01_Neck
eye_left_bone Bip01_Head
eye_right_bone Bip01_Head
L_forearm L_humerus
L_front_hand L_forearm
L_weapon_bone L_forearm
L_front_hand01_01 L_front_hand
L_front_hand02_01 L_front_hand
L_front_hand03_01 L_front_hand
L_front_hand01_02 L_front_hand01_01
L_front_hand02_02 L_front_hand02_01
L_front_hand03_02 L_front_hand03_01
R_forearm R_humerus
R_front_hand R_forearm
R_weapon_bone R_forearm
R_front_hand01_01 R_front_hand
R_front_hand02_01 R_front_hand
R_front_hand03_01 R_front_hand
R_front_hand01_02 R_front_hand01_01
R_front_hand02_02 R_front_hand02_01
R_front_hand03_02 R_front_hand03_01
null_rope01_connect L_mid_tent01
Rope1_Seg01 null_rope01_connect
Rope1_Seg02 Rope1_Seg01
Rope1_Seg03 Rope1_Seg02
Rope1_Seg04 Rope1_Seg03
Rope1_Seg05 Rope1_Seg04
Rope1_Seg06 Rope1_Seg05
Rope1_Seg07 Rope1_Seg06
Rope1_Seg09 Rope1_Seg07
L_mid_hand01 Rope1_Seg09
L_mid_hand02 Rope1_Seg09
L_mid_hand03 Rope1_Seg09
null_rope02_connect R_mid_tent01
Rope2_Seg01 null_rope02_connect
Rope2_Seg02 Rope2_Seg01
Rope2_Seg03 Rope2_Seg02
Rope2_Seg04 Rope2_Seg03
Rope2_Seg05 Rope2_Seg04
Rope2_Seg06 Rope2_Seg05
Rope2_Seg07 Rope2_Seg06
Rope2_Seg09 Rope2_Seg07
R_mid_hand01 Rope2_Seg09
R_mid_hand02 Rope2_Seg09
R_mid_hand03 Rope2_Seg09
spine02 spine01
spine03 spine02
pelvis spine03
null_rope03_connect pelvis
null_rope04_connect pelvis
Rope3_Seg01 null_rope03_connect
Rope3_Seg02 Rope3_Seg01
Rope3_Seg03 Rope3_Seg02
Rope3_Seg04 Rope3_Seg03
Rope3_Seg05 Rope3_Seg04
Rope3_Seg06 Rope3_Seg05
Rope3_Seg07 Rope3_Seg06
Rope3_Seg08 Rope3_Seg07
Rope3_Seg09 Rope3_Seg08
R_rear_hand01 Rope3_Seg09
R_rear_hand02 Rope3_Seg09
R_rear_hand03 Rope3_Seg09
Rope4_Seg01 null_rope04_connect
Rope4_Seg02 Rope4_Seg01
Rope4_Seg03 Rope4_Seg02
Rope4_Seg04 Rope4_Seg03
Rope4_Seg05 Rope4_Seg04
Rope4_Seg06 Rope4_Seg05
Rope4_Seg07 Rope4_Seg06
Rope4_Seg08 Rope4_Seg07
Rope4_Seg09 Rope4_Seg08
L_rear_hand01 Rope4_Seg09
L_rear_hand02 Rope4_Seg09
L_rear_hand03 Rope4_Seg09
[BasePosition]
#SegmentName Tx, Ty, Tz, Rx, Ry, Rz, BoneLength
MASTER 0.000000 0.000000 0.000000 -90.000000 0.000000 0.000000 10.000000 
root 0.000000 0.000000 0.000000 0.000000 0.000000 0.000000 10.000000 
chest 0.000000 0.000000 0.000000 0.000000 0.000000 0.000000 10.000000 
L_mid_tent01 0.000000 0.000000 0.000000 0.000000 0.000000 0.000000 10.000000 
R_mid_tent01 0.000000 0.000000 0.000000 0.000000 0.000000 0.000000 10.000000 
spine01 0.000000 0.000000 0.000000 0.000000 0.000000 0.000000 10.000000 
Bip01_Neck 0.000000 0.000000 0.000000 0.000000 0.000000 0.000000 10.000000 
L_humerus 0.000000 0.000000 0.000000 0.000000 0.000000 0.000000 10.000000 
R_humerus 0.000000 0.000000 0.000000 0.000000 0.000000 0.000000 10.000000 
weapon_bone 0.000000 0.000000 0.000000 0.000000 0.000000 0.000000 10.000000 
Bip01_Head 0.000000 0.000000 0.000000 0.000000 0.000000 0.000000 10.000000 
eye_left_bone 0.000000 0.000000 0.000000 0.000000 0.000000 0.000000 10.000000 
eye_right_bone 0.000000 0.000000 0.000000 0.000000 0.000000 0.000000 10.000000 
L_forearm 0.000000 0.000000 0.000000 0.000000 0.000000 0.000000 10.000000 
L_front_hand 0.000000 0.000000 0.000000 0.000000 0.000000 0.000000 10.000000 
L_weapon_bone 0.000000 0.000000 0.000000 0.000000 0.000000 0.000000 10.000000 
L_front_hand01_01 0.000000 0.000000 0.000000 0.000000 0.000000 0.000000 10.000000 
L_front_hand02_01 0.000000 0.000000 0.000000 0.000000 0.000000 0.000000 10.000000 
L_front_hand03_01 0.000000 0.000000 0.000000 0.000000 0.000000 0.000000 10.000000 
L_front_hand01_02 0.000000 0.000000 0.000000 0.000000 0.000000 0.000000 10.000000 
L_front_hand02_02 0.000000 0.000000 0.000000 0.000000 0.000000 0.000000 10.000000 
L_front_hand03_02 0.000000 0.000000 0.000000 0.000000 0.000000 0.000000 10.000000 
R_forearm 0.000000 0.000000 0.000000 0.000000 0.000000 0.000000 10.000000 
R_front_hand 0.000000 0.000000 0.000000 0.000000 0.000000 0.000000 10.000000 
R_weapon_bone 0.000000 0.000000 0.000000 0.000000 0.000000 0.000000 10.000000 
R_front_hand01_01 0.000000 0.000000 0.000000 0.000000 0.000000 0.000000 10.000000 
R_front_hand02_01 0.000000 0.000000 0.000000 0.000000 0.000000 0.000000 10.000000 
R_front_hand03_01 0.000000 0.000000 0.000000 0.000000 0.000000 0.000000 10.000000 
R_front_hand01_02 0.000000 0.000000 0.000000 0.000000 0.000000 0.000000 10.000000 
R_front_hand02_02 0.000000 0.000000 0.000000 0.000000 0.000000 0.000000 10.000000 
R_front_hand03_02 0.000000 0.000000 0.000000 0.000000 0.000000 0.000000 10.000000 
null_rope01_connect 0.000000 0.000000 0.000000 0.000000 0.000000 0.000000 10.000000 
Rope1_Seg01 0.000000 0.000000 0.000000 0.000000 0.000000 0.000000 10.000000 
Rope1_Seg02 0.000000 0.000000 0.000000 0.000000 0.000000 0.000000 10.000000 
Rope1_Seg03 0.000000 0.000000 0.000000 0.000000 0.000000 0.000000 10.000000 
Rope1_Seg04 0.000000 0.000000 0.000000 0.000000 0.000000 0.000000 10.000000 
Rope1_Seg05 0.000000 0.000000 0.000000 0.000000 0.000000 0.000000 10.000000 
Rope1_Seg06 0.000000 0.000000 0.000000 0.000000 0.000000 0.000000 10.000000 
Rope1_Seg07 0.000000 0.000000 0.000000 0.000000 0.000000 0.000000 10.000000 
Rope1_Seg09 0.000000 0.000000 0.000000 0.000000 0.000000 0.000000 10.000000 
L_mid_hand01 0.000000 0.000000 0.000000 0.000000 0.000000 0.000000 10.000000 
L_mid_hand02 0.000000 0.000000 0.000000 0.000000 0.000000 0.000000 10.000000 
L_mid_hand03 0.000000 0.000000 0.000000 0.000000 0.000000 0.000000 10.000000 
null_rope02_connect 0.000000 0.000000 0.000000 0.000000 0.000000 0.000000 10.000000 
Rope2_Seg01 0.000000 0.000000 0.000000 0.000000 0.000000 0.000000 10.000000 
Rope2_Seg02 0.000000 0.000000 0.000000 0.000000 0.000000 0.000000 10.000000 
Rope2_Seg03 0.000000 0.000000 0.000000 0.000000 0.000000 0.000000 10.000000 
Rope2_Seg04 0.000000 0.000000 0.000000 0.000000 0.000000 0.000000 10.000000 
Rope2_Seg05 0.000000 0.000000 0.000000 0.000000 0.000000 0.000000 10.000000 
Rope2_Seg06 0.000000 0.000000 0.000000 0.000000 0.000000 0.000000 10.000000 
Rope2_Seg07 0.000000 0.000000 0.000000 0.000000 0.000000 0.000000 10.000000 
Rope2_Seg09 0.000000 0.000000 0.000000 0.000000 0.000000 0.000000 10.000000 
R_mid_hand01 0.000000 0.000000 0.000000 0.000000 0.000000 0.000000 10.000000 
R_mid_hand02 0.000000 0.000000 0.000000 0.000000 0.000000 0.000000 10.000000 
R_mid_hand03 0.000000 0.000000 0.000000 0.000000 0.000000 0.000000 10.000000 
spine02 0.000000 0.000000 0.000000 0.000000 0.000000 0.000000 10.000000 
spine03 0.000000 0.000000 0.000000 0.000000 0.000000 0.000000 10.000000 
pelvis 0.000000 0.000000 0.000000 0.000000 0.000000 0.000000 10.000000 
null_rope03_connect 0.000000 0.000000 0.000000 0.000000 0.000000 0.000000 10.000000 
null_rope04_connect 0.000000 0.000000 0.000000 0.000000 0.000000 0.000000 10.000000 
Rope3_Seg01 0.000000 0.000000 0.000000 0.000000 0.000000 0.000000 10.000000 
Rope3_Seg02 0.000000 0.000000 0.000000 0.000000 0.000000 0.000000 10.000000 
Rope3_Seg03 0.000000 0.000000 0.000000 0.000000 0.000000 0.000000 10.000000 
Rope3_Seg04 0.000000 0.000000 0.000000 0.000000 0.000000 0.000000 10.000000 
Rope3_Seg05 0.000000 0.000000 0.000000 0.000000 0.000000 0.000000 10.000000 
Rope3_Seg06 0.000000 0.000000 0.000000 0.000000 0.000000 0.000000 10.000000 
Rope3_Seg07 0.000000 0.000000 0.000000 0.000000 0.000000 0.000000 10.000000 
Rope3_Seg08 0.000000 0.000000 0.000000 0.000000 0.000000 0.000000 10.000000 
Rope3_Seg09 0.000000 0.000000 0.000000 0.000000 0.000000 0.000000 10.000000 
R_rear_hand01 0.000000 0.000000 0.000000 0.000000 0.000000 0.000000 10.000000 
R_rear_hand02 0.000000 0.000000 0.000000 0.000000 0.000000 0.000000 10.000000 
R_rear_hand03 0.000000 0.000000 0.000000 0.000000 0.000000 0.000000 10.000000 
Rope4_Seg01 0.000000 0.000000 0.000000 0.000000 0.000000 0.000000 10.000000 
Rope4_Seg02 0.000000 0.000000 0.000000 0.000000 0.000000 0.000000 10.000000 
Rope4_Seg03 0.000000 0.000000 0.000000 0.000000 0.000000 0.000000 10.000000 
Rope4_Seg04 0.000000 0.000000 0.000000 0.000000 0.000000 0.000000 10.000000 
Rope4_Seg05 0.000000 0.000000 0.000000 0.000000 0.000000 0.000000 10.000000 
Rope4_Seg06 0.000000 0.000000 0.000000 0.000000 0.000000 0.000000 10.000000 
Rope4_Seg07 0.000000 0.000000 0.000000 0.000000 0.000000 0.000000 10.000000 
Rope4_Seg08 0.000000 0.000000 0.000000 0.000000 0.000000 0.000000 10.000000 
Rope4_Seg09 0.000000 0.000000 0.000000 0.000000 0.000000 0.000000 10.000000 
L_rear_hand01 0.000000 0.000000 0.000000 0.000000 0.000000 0.000000 10.000000 
L_rear_hand02 0.000000 0.000000 0.000000 0.000000 0.000000 0.000000 10.000000 
L_rear_hand03 0.000000 0.000000 0.000000 0.000000 0.000000 0.000000 10.000000 
#Beginning of Data. Separated by tabs
#Fr	Tx	Ty	Tz	Rx	Ry	Rz	SF
[MASTER]
24 0.000000 0.000000 0.000000 0.001660 0.001660 0.001660 0.000000
25 0.000000 0.000000 0.000000 0.001660 0.001660 0.001660 0.000000
[root]
24 28.816822 361.378418 1598.148560 -66.576492 -13.136502 -142.982635 1638.750610
25 28.549915 358.025391 1580.645386 -66.761993 -12.901562 -142.204056 1620.937134
[chest]
24 -84.512650 -34.090519 0.000000 -2.872297 -7.735954 176.363892 91.129311
25 -84.512650 -34.090519 0.000000 -2.878532 -6.841586 176.432907 91.129311
[L_mid_tent01]
24 27.299629 22.177931 -249.918747 111.779579 8.116114 151.638992 252.381683
25 27.299589 22.178026 -249.918747 110.665268 9.667787 149.745178 252.381683
[R_mid_tent01]
24 23.228794 24.509907 226.238495 -111.223419 -34.911671 29.549738 228.744751
25 23.228794 24.509907 226.238495 -115.383247 -30.211977 30.656610 228.744751
[spine01]
24 -0.361383 -0.195265 0.000000 0.001934 0.001330 20.987953 0.410763
25 -0.361383 -0.195265 0.000000 0.001934 0.001329 21.006399 0.410763
[Bip01_Neck]
24 165.484543 71.581718 0.000119 175.896118 1.177290 24.871183 180.302734
25 165.484543 71.581718 0.000119 175.896118 1.177290 24.871183 180.302734
[L_humerus]
24 -13.983130 -135.272980 -120.471481 -68.079506 16.285950 6.048841 181.680161
25 -13.983130 -135.272980 -120.471481 -67.796600 18.740561 8.432549 181.680161
[R_humerus]
24 -13.983309 -135.273102 125.287651 137.942764 -33.726814 -12.392351 184.909012
25 -13.983309 -135.273102 125.287651 138.469650 -34.269173 -14.404262 184.909012
[weapon_bone]
24 235.964890 -300.705902 0.000000 0.000000 -89.951546 -128.212341 382.234833
25 235.964890 -300.705902 0.000000 0.000000 -89.951546 -128.212341 382.234833
[Bip01_Head]
24 261.788086 74.541618 0.152168 41.901543 14.084196 -69.980598 272.193848
25 261.334442 75.568077 0.271683 41.357918 13.950053 -69.967842 272.040985
[eye_left_bone]
24 33.666378 158.339508 -75.565826 -117.597336 -86.452377 18.233862 178.647736
25 33.208340 158.174072 -75.507507 -115.991951 -86.341843 16.611429 178.390625
[eye_right_bone]
24 39.810791 159.836090 53.309055 62.440636 -86.455139 18.197477 173.130951
25 39.614716 159.625183 53.356480 64.069290 -86.344734 16.552931 172.905869
[L_forearm]
24 322.776093 0.000000 -0.000119 0.001596 0.001721 -4.336743 322.776093
25 322.776093 0.000000 -0.000119 0.001578 0.001738 -5.519861 322.776093
[L_front_hand]
24 241.149185 -0.042021 -3.300071 -70.541428 -0.290714 2.349387 241.171753
25 241.149185 -0.042021 -3.300071 -15.429521 -0.473656 -2.439790 241.171753
[L_weapon_bone]
24 156.183838 0.000000 0.000000 0.000462 0.002301 -67.304413 156.183838
25 156.183838 0.000000 0.000000 0.000558 0.002280 -62.492386 156.183838
[L_front_hand01_01]
24 86.095154 20.947098 -0.655860 -0.288967 -0.524182 66.581497 88.609184
25 86.095154 20.947098 -0.655860 -0.288967 -0.524182 66.581490 88.609184
[L_front_hand02_01]
24 86.935165 -11.437475 24.513514 142.546371 -55.255390 -47.355206 91.046425
25 86.935165 -11.437475 24.513514 142.546356 -55.255375 -47.355194 91.046425
[L_front_hand03_01]
24 86.637497 -14.123976 -20.424902 -142.852753 53.473366 -49.356197 90.126129
25 86.637497 -14.123976 -20.424902 -142.852768 53.473366 -49.356205 90.126129
[L_front_hand01_02]
24 71.020905 -0.000179 0.000030 0.000001 -0.002347 -90.041962 71.020905
25 71.020905 -0.000179 0.000030 0.000459 0.002302 -67.435173 71.020905
[L_front_hand02_02]
24 71.020927 -0.000119 0.000060 0.000001 -0.002347 -90.041962 71.020927
25 71.020927 -0.000119 0.000060 0.000459 0.002302 -67.435173 71.020927
[L_front_hand03_02]
24 71.020905 -0.000060 0.000060 0.000001 -0.002347 -90.041962 71.020905
25 71.020905 -0.000060 0.000060 0.000459 0.002302 -67.435173 71.020905
[R_forearm]
24 322.776428 -0.000060 0.000030 0.112499 -0.181515 -33.139671 322.776428
25 322.776428 -0.000060 0.000030 0.113079 -0.181154 -33.506207 322.776428
[R_front_hand]
24 238.847015 -0.006795 2.210259 -2.635298 -10.645461 -26.312506 238.857239
25 238.847015 -0.006795 2.210259 -2.635298 -10.645461 -26.312506 238.857239
[R_weapon_bone]
24 155.664093 0.002503 -0.000030 0.003487 0.001180 -90.988930 155.664078
25 155.664093 0.002503 -0.000030 0.003487 0.001180 -90.988930 155.664078
[R_front_hand01_01]
24 87.624611 14.231146 22.918642 -154.633499 -59.950619 61.746044 91.683487
25 87.624611 14.231146 22.918642 -154.633499 -59.950619 61.746044 91.683487
[R_front_hand02_01]
24 89.356956 14.367283 -19.491137 154.602661 58.302849 63.744389 92.579636
25 89.356956 14.367283 -19.491137 154.602661 58.302849 63.744389 92.579636
[R_front_hand03_01]
24 87.286232 -22.307278 -0.143439 0.162155 -0.423168 -75.767921 90.091743
25 87.286232 -22.307278 -0.143439 0.162155 -0.423168 -75.767921 90.091743
[R_front_hand01_02]
24 71.020905 0.000060 0.000119 0.002323 -0.000334 106.381714 71.020905
25 71.020905 0.000060 0.000119 0.002323 -0.000334 106.381714 71.020905
[R_front_hand02_02]
24 71.020844 -0.000030 -0.000119 0.002323 -0.000334 106.381714 71.020836
25 71.020844 -0.000030 -0.000119 0.002323 -0.000334 106.381714 71.020836
[R_front_hand03_02]
24 71.020905 0.000000 0.000030 0.002323 -0.000334 106.381714 71.020905
25 71.020905 0.000000 0.000030 0.002323 -0.000334 106.381714 71.020905
[null_rope01_connect]
24 328.732483 0.000000 -0.000238 -152.348862 33.403255 41.685471 328.732483
25 328.732483 0.000000 -0.000238 -149.604858 34.097576 44.635178 328.732483
[Rope1_Seg01]
24 -0.000038 -0.000114 0.000107 52.967903 47.533104 64.852486 0.000161
25 -0.000038 -0.000114 0.000108 54.793468 48.435329 66.799995 0.000162
[Rope1_Seg02]
24 139.999863 -0.000179 0.000000 -3.165710 -11.082171 1.705686 139.999863
25 139.999863 -0.000179 0.000000 -3.953100 -13.662852 2.439215 139.999863
[Rope1_Seg03]
24 139.999924 0.000060 -0.000060 -5.245817 -12.081074 1.209346 139.999924
25 139.999924 0.000060 -0.000060 -6.642352 -14.081690 1.511802 139.999924
[Rope1_Seg04]
24 139.999924 -0.000060 -0.000119 -12.393560 -17.813902 -0.314350 139.999924
25 139.999924 -0.000060 -0.000119 -14.642874 -18.734600 -1.087064 139.999924
[Rope1_Seg05]
24 139.999832 0.000119 -0.000060 -9.363447 -9.487818 -2.057995 139.999832
25 139.999832 0.000119 -0.000060 -5.379386 -5.326332 -1.021778 139.999832
[Rope1_Seg06]
24 139.999954 0.000119 -0.000060 5.482282 4.016023 2.651588 139.999954
25 139.999954 0.000119 -0.000060 9.401196 6.523462 4.689811 139.999954
[Rope1_Seg07]
24 139.999985 0.000060 0.000000 12.740944 11.974781 5.241821 139.999985
25 139.999985 0.000060 0.000000 11.961565 11.057254 4.926124 139.999985
[Rope1_Seg09]
24 121.602913 0.000119 -0.000089 -156.511307 -1.359586 0.845596 121.602913
25 121.602913 0.000119 -0.000089 -122.841278 -1.360055 0.849301 121.602913
[L_mid_hand01]
24 103.859421 1.038730 8.195221 123.429649 -63.258011 -31.050037 104.187431
25 103.859421 1.038730 8.195221 126.924042 -65.633118 -34.926895 104.187431
[L_mid_hand02]
24 105.572853 -4.139662 -10.864139 -164.054031 42.141357 -66.337196 106.211075
25 105.572853 -4.139662 -10.864139 -166.625534 42.877316 -70.146866 106.211075
[L_mid_hand03]
24 104.641464 17.579376 -3.913581 -7.708114 17.164392 69.266457 106.179977
25 104.641464 17.579376 -3.913581 -6.807626 17.530092 72.284409 106.179977
[null_rope02_connect]
24 328.732849 0.000179 -0.000119 -177.738495 -5.645869 -99.708542 328.732849
25 328.732849 0.000179 -0.000119 178.553802 -2.762337 -102.665543 328.732849
[Rope2_Seg01]
24 0.000042 0.000108 0.000000 95.822281 4.485497 -125.359138 0.000116
25 0.000047 0.000109 0.000000 96.765976 7.439655 -116.484795 0.000118
[Rope2_Seg02]
24 139.999741 -0.000060 -0.000119 -1.064414 5.359380 6.887918 139.999756
25 139.999741 -0.000060 -0.000119 -3.645906 8.733966 9.516325 139.999756
[Rope2_Seg03]
24 140.000107 0.000030 0.000000 -2.603606 21.744217 33.201462 140.000107
25 140.000107 0.000030 0.000000 -10.361795 29.424055 48.085464 140.000107
[Rope2_Seg04]
24 139.999802 0.000000 -0.000060 -1.559453 23.164839 59.361420 139.999802
25 139.999802 0.000000 -0.000060 -8.641451 9.645539 45.029552 139.999802
[Rope2_Seg05]
24 139.999985 -0.000060 0.000119 -1.467242 8.037455 27.749990 139.999985
25 139.999985 -0.000060 0.000119 -1.046437 4.895921 26.886875 139.999985
[Rope2_Seg06]
24 139.999893 -0.000030 -0.000119 0.116214 5.747116 22.206905 139.999893
25 139.999893 -0.000030 -0.000119 1.405445 3.750365 22.832949 139.999893
[Rope2_Seg07]
24 139.999893 0.000060 -0.000060 0.184380 1.991477 9.066297 139.999893
25 139.999893 0.000060 -0.000060 1.025612 1.390375 9.511889 139.999893
[Rope2_Seg09]
24 121.338966 0.000089 -0.000060 33.793236 -1.359788 -0.847141 121.338966
25 121.338966 0.000089 -0.000060 33.793236 -1.359788 -0.847141 121.338966
[R_mid_hand01]
24 104.680779 11.144459 -10.335981 -43.323078 21.654202 24.098293 105.778534
25 104.680779 11.144459 -10.335981 -43.938274 20.114082 22.371925 105.778534
[R_mid_hand02]
24 104.070427 2.443552 8.231699 73.776604 -27.392876 8.157246 104.424065
25 104.070427 2.443552 8.231699 74.082695 -25.252432 7.471604 104.424065
[R_mid_hand03]
24 106.028137 -11.221827 -5.996406 -166.969986 9.041595 -31.474035 106.788818
25 106.028137 -11.221827 -5.996406 -166.638550 8.536323 -29.281855 106.788818
[spine02]
24 129.756927 0.001550 0.000119 0.341937 -4.046617 -12.680368 129.756927
25 129.756927 0.001550 0.000119 0.332346 -4.047552 -12.548108 129.756927
[spine03]
24 78.614441 0.080789 -4.899031 2.166226 3.685909 20.621275 78.766983
25 78.614418 0.080839 -4.899029 2.155644 3.692831 20.429993 78.766960
[pelvis]
24 169.435242 0.051022 0.000000 -0.061477 -0.179883 14.731589 169.435257
25 169.435242 0.051022 0.000000 -0.061379 -0.179916 14.669540 169.435257
[null_rope03_connect]
24 -1.257226 -2.466202 137.391083 -58.879837 -38.394989 130.138626 137.418976
25 -1.257226 -2.466202 137.391083 -58.820915 -38.983154 129.667511 137.418976
[null_rope04_connect]
24 -1.259640 -2.480268 -137.844437 -58.879837 -38.394989 130.138626 137.872513
25 -1.259640 -2.480268 -137.844437 -58.820915 -38.983154 129.667511 137.872513
[Rope3_Seg01]
24 0.000000 0.000000 0.000000 -103.507607 -32.841183 -124.838020 0.000000
25 0.000000 0.000000 0.000000 -97.702812 -29.147552 -133.180603 0.000000
[Rope3_Seg02]
24 139.999924 -0.000119 0.000060 10.082240 18.935230 0.449129 139.999924
25 139.999924 -0.000119 0.000060 11.117447 16.199520 1.357909 139.999924
[Rope3_Seg03]
24 139.999924 -0.000119 0.000119 10.617721 14.540194 -1.133595 139.999924
25 139.999924 -0.000119 0.000119 15.428250 16.169365 -1.468487 139.999924
[Rope3_Seg04]
24 139.999924 0.000119 0.000000 8.959203 9.851388 -2.825136 139.999924
25 139.999924 0.000119 0.000000 12.466402 10.585370 -3.536610 139.999924
[Rope3_Seg05]
24 139.999924 -0.000238 0.000060 15.331987 15.078367 -12.907285 139.999924
25 139.999924 -0.000238 0.000060 18.441166 14.408265 -12.202931 139.999924
[Rope3_Seg06]
24 139.999893 -0.000119 -0.000060 10.507971 10.649031 -18.184196 139.999893
25 139.999893 -0.000119 -0.000060 12.944052 10.230643 -19.428253 139.999893
[Rope3_Seg07]
24 139.999771 0.000060 -0.000119 3.926226 3.631910 -9.669049 139.999771
25 139.999771 0.000060 -0.000119 4.576606 2.850092 -10.897897 139.999771
[Rope3_Seg08]
24 139.999985 -0.000060 0.000000 1.999408 1.617394 -5.463307 139.999985
25 139.999985 -0.000060 0.000000 2.132562 1.041778 -5.848353 139.999985
[Rope3_Seg09]
24 90.185997 -0.000179 -0.000060 41.236282 -1.359630 -0.847997 90.185997
25 90.185997 -0.000179 -0.000060 38.751644 -1.359620 -0.847089 90.185997
[R_rear_hand01]
24 103.366196 -6.073594 -10.757982 -161.615479 16.735487 -30.303860 104.101845
25 103.366196 -6.073594 -10.757982 -160.429596 15.319305 -26.019779 104.101845
[R_rear_hand02]
24 100.509819 12.039542 -7.992327 -34.217869 19.412970 29.063158 101.543350
25 100.509819 12.039542 -7.992327 -35.392105 16.927847 25.302752 101.543350
[R_rear_hand03]
24 101.539970 5.215704 5.435467 83.350166 -31.149683 7.314062 101.819031
25 101.539970 5.215704 5.435467 83.622475 -26.824537 6.747133 101.819031
[Rope4_Seg01]
24 0.000000 0.000000 0.000000 -98.275909 23.867640 87.910057 0.000000
25 0.000000 0.000000 0.000000 -97.719620 28.690849 88.782776 0.000000
[Rope4_Seg02]
24 139.999985 0.000060 0.000119 0.057273 0.362508 0.382661 139.999985
25 139.999985 0.000060 0.000119 0.056656 0.204271 0.333122 139.999985
[Rope4_Seg03]
24 139.999924 0.000000 -0.000238 0.067470 0.406961 0.427233 139.999924
25 139.999924 0.000000 -0.000238 0.066672 0.224002 0.367773 139.999924
[Rope4_Seg04]
24 139.999985 0.000000 0.000119 0.091110 -1.101632 0.470649 139.999985
25 139.999985 0.000000 0.000119 0.093061 -1.794385 0.796564 139.999985
[Rope4_Seg05]
24 139.999802 -0.000060 -0.000119 0.207011 -3.823045 0.519291 139.999802
25 139.999802 -0.000060 -0.000119 0.195988 -3.289825 1.158772 139.999802
[Rope4_Seg06]
24 139.999924 0.000000 0.000060 0.073272 7.811700 0.685809 139.999924
25 139.999924 0.000000 0.000060 -0.049770 9.096416 -1.207912 139.999924
[Rope4_Seg07]
24 139.999802 0.000000 0.000000 1.755897 18.741259 0.757694 139.999802
25 139.999802 0.000000 0.000000 1.400462 15.917480 -2.714425 139.999802
[Rope4_Seg08]
24 139.999924 0.000000 0.000119 0.666231 10.624397 0.202697 139.999924
25 139.999924 0.000000 0.000119 0.099989 7.605658 -1.429144 139.999924
[Rope4_Seg09]
24 90.185791 0.000060 0.000060 179.708221 2.231225 0.851755 90.185791
25 90.185791 0.000060 0.000060 177.665024 2.227077 0.851804 90.185791
[L_rear_hand01]
24 101.696655 -8.392275 -7.654577 -31.231728 -24.205091 142.914993 102.329041
25 101.696655 -8.392275 -7.654577 -32.601719 -22.214943 146.390625 102.329041
[L_rear_hand02]
24 102.726799 -1.568258 5.773216 82.573181 39.936115 171.355026 102.900848
25 102.726799 -1.568258 5.773216 82.943199 36.203064 171.954926 102.900848
[L_rear_hand03]
24 104.552910 9.721220 -10.420293 -164.376099 -19.329395 -140.791367 105.519653
25 104.552910 9.721220 -10.420293 -163.143448 -18.276064 -144.611084 105.519653
